<?xml version="1.0" standalone="no"?>
<svg xmlns="http://www.w3.org/2000/svg" xmlns:xlink="http://www.w3.org/1999/xlink" width="1199pt" height="758pt" viewBox="0.00 0.00 1199.00 757.60">
<g id="graph0" class="graph" transform="translate(4,753.5999755859375) scale(1)" data-name="Tree">

<polygon fill="white" stroke="none" points="-4,4 -4,-753.6 1195,-753.6 1195,4 -4,4" style=""/>
<!-- 0 -->
<g id="node1" class="node" pointer-events="visible" data-name="0">

<path fill="#e6853f" stroke="black" d="M680.43,-749.8C680.43,-749.8 549.57,-749.8 549.57,-749.8 543.57,-749.8 537.57,-743.8 537.57,-737.8 537.57,-737.8 537.57,-619 537.57,-619 537.57,-613 543.57,-607 549.57,-607 549.57,-607 680.43,-607 680.43,-607 686.43,-607 692.43,-613 692.43,-619 692.43,-619 692.43,-737.8 692.43,-737.8 692.43,-743.8 686.43,-749.8 680.43,-749.8" style=""/>
<text text-anchor="middle" x="615" y="-733" font-family="Helvetica,sans-Serif" font-size="14.00" style="">Rank &lt;= 142.5</text>
<text text-anchor="middle" x="615" y="-716.2" font-family="Helvetica,sans-Serif" font-size="14.00" style="">squared_error = 0.581</text>
<text text-anchor="middle" x="615" y="-699.4" font-family="Helvetica,sans-Serif" font-size="14.00" style="">samples = 13278</text>
<text text-anchor="middle" x="615" y="-682.6" font-family="Helvetica,sans-Serif" font-size="14.00" style="">value = [[0.533]</text>
<text text-anchor="middle" x="615" y="-665.8" font-family="Helvetica,sans-Serif" font-size="14.00" style="">[0.262]</text>
<text text-anchor="middle" x="615" y="-649" font-family="Helvetica,sans-Serif" font-size="14.00" style="">[0.048]</text>
<text text-anchor="middle" x="615" y="-632.2" font-family="Helvetica,sans-Serif" font-size="14.00" style="">[0.146]</text>
<text text-anchor="middle" x="615" y="-615.4" font-family="Helvetica,sans-Serif" font-size="14.00" style="">[0.076]]</text>
</g>
<!-- 1 -->
<g id="node2" class="node" pointer-events="visible" data-name="1">

<path fill="#f8dbc6" stroke="black" d="M475.06,-571.4C475.06,-571.4 398.94,-571.4 398.94,-571.4 392.94,-571.4 386.94,-565.4 386.94,-559.4 386.94,-559.4 386.94,-440.6 386.94,-440.6 386.94,-434.6 392.94,-428.6 398.94,-428.6 398.94,-428.6 475.06,-428.6 475.06,-428.6 481.06,-428.6 487.06,-434.6 487.06,-440.6 487.06,-440.6 487.06,-559.4 487.06,-559.4 487.06,-565.4 481.06,-571.4 475.06,-571.4" style=""/>
<text text-anchor="middle" x="437" y="-554.6" font-family="Helvetica,sans-Serif" font-size="14.00" style="">Rank &lt;= 23.5</text>
<text text-anchor="middle" x="437" y="-537.8" font-family="Helvetica,sans-Serif" font-size="14.00" style="">14.708</text>
<text text-anchor="middle" x="437" y="-521" font-family="Helvetica,sans-Serif" font-size="14.00" style="">117</text>
<text text-anchor="middle" x="437" y="-504.2" font-family="Helvetica,sans-Serif" font-size="14.00" style="">[[11.609]</text>
<text text-anchor="middle" x="437" y="-487.4" font-family="Helvetica,sans-Serif" font-size="14.00" style="">[5.669]</text>
<text text-anchor="middle" x="437" y="-470.6" font-family="Helvetica,sans-Serif" font-size="14.00" style="">[1.079]</text>
<text text-anchor="middle" x="437" y="-453.8" font-family="Helvetica,sans-Serif" font-size="14.00" style="">[3.378]</text>
<text text-anchor="middle" x="437" y="-437" font-family="Helvetica,sans-Serif" font-size="14.00" style="">[1.482]]</text>
</g>
<!-- 0&#45;&gt;1 -->
<g id="edge1" class="edge" data-name="0-&gt;1">

<path fill="none" stroke="black" d="M543.63,-606.67C527.57,-590.75 510.71,-574.04 495.26,-558.73" style=""/>
<polygon fill="black" stroke="black" points="497.96,-556.48 488.39,-551.93 493.03,-561.46 497.96,-556.48" style=""/>
<text text-anchor="middle" x="487.43" y="-571.67" font-family="Helvetica,sans-Serif" font-size="14.00" style="">True</text>
</g>
<!-- 234 -->
<g id="node17" class="node" pointer-events="visible" data-name="234">

<path fill="#e5823b" stroke="black" d="M813.63,-571.4C813.63,-571.4 722.37,-571.4 722.37,-571.4 716.37,-571.4 710.37,-565.4 710.37,-559.4 710.37,-559.4 710.37,-440.6 710.37,-440.6 710.37,-434.6 716.37,-428.6 722.37,-428.6 722.37,-428.6 813.63,-428.6 813.63,-428.6 819.63,-428.6 825.63,-434.6 825.63,-440.6 825.63,-440.6 825.63,-559.4 825.63,-559.4 825.63,-565.4 819.63,-571.4 813.63,-571.4" style=""/>
<text text-anchor="middle" x="768" y="-554.6" font-family="Helvetica,sans-Serif" font-size="14.00" style="">Rank &lt;= 1479.5</text>
<text text-anchor="middle" x="768" y="-537.8" font-family="Helvetica,sans-Serif" font-size="14.00" style="">0.159</text>
<text text-anchor="middle" x="768" y="-521" font-family="Helvetica,sans-Serif" font-size="14.00" style="">13161</text>
<text text-anchor="middle" x="768" y="-504.2" font-family="Helvetica,sans-Serif" font-size="14.00" style="">[[0.434]</text>
<text text-anchor="middle" x="768" y="-487.4" font-family="Helvetica,sans-Serif" font-size="14.00" style="">[0.214]</text>
<text text-anchor="middle" x="768" y="-470.6" font-family="Helvetica,sans-Serif" font-size="14.00" style="">[0.039]</text>
<text text-anchor="middle" x="768" y="-453.8" font-family="Helvetica,sans-Serif" font-size="14.00" style="">[0.117]</text>
<text text-anchor="middle" x="768" y="-437" font-family="Helvetica,sans-Serif" font-size="14.00" style="">[0.064]]</text>
</g>
<!-- 0&#45;&gt;234 -->
<g id="edge16" class="edge" data-name="0-&gt;234">

<path fill="none" stroke="black" d="M676.35,-606.67C685.05,-596.63 694.03,-586.28 702.8,-576.17" style=""/>
<polygon fill="black" stroke="black" points="705.21,-578.73 709.12,-568.88 699.92,-574.14 705.21,-578.73" style=""/>
<text text-anchor="middle" x="711.88" y="-588.48" font-family="Helvetica,sans-Serif" font-size="14.00" style="">False</text>
</g>
<!-- 2 -->
<g id="node3" class="node" pointer-events="visible" data-name="2">

<path fill="#ffffff" stroke="black" d="M263.06,-393C263.06,-393 186.94,-393 186.94,-393 180.94,-393 174.94,-387 174.94,-381 174.94,-381 174.94,-262.2 174.94,-262.2 174.94,-256.2 180.94,-250.2 186.94,-250.2 186.94,-250.2 263.06,-250.2 263.06,-250.2 269.06,-250.2 275.06,-256.2 275.06,-262.2 275.06,-262.2 275.06,-381 275.06,-381 275.06,-387 269.06,-393 263.06,-393" style=""/>
<text text-anchor="middle" x="225" y="-376.2" font-family="Helvetica,sans-Serif" font-size="14.00" style="">Rank &lt;= 10.5</text>
<text text-anchor="middle" x="225" y="-359.4" font-family="Helvetica,sans-Serif" font-size="14.00" style="">20.639</text>
<text text-anchor="middle" x="225" y="-342.6" font-family="Helvetica,sans-Serif" font-size="14.00" style="">17</text>
<text text-anchor="middle" x="225" y="-325.8" font-family="Helvetica,sans-Serif" font-size="14.00" style="">[[25.328]</text>
<text text-anchor="middle" x="225" y="-309" font-family="Helvetica,sans-Serif" font-size="14.00" style="">[13.604]</text>
<text text-anchor="middle" x="225" y="-292.2" font-family="Helvetica,sans-Serif" font-size="14.00" style="">[2.202]</text>
<text text-anchor="middle" x="225" y="-275.4" font-family="Helvetica,sans-Serif" font-size="14.00" style="">[6.119]</text>
<text text-anchor="middle" x="225" y="-258.6" font-family="Helvetica,sans-Serif" font-size="14.00" style="">[3.402]]</text>
</g>
<!-- 1&#45;&gt;2 -->
<g id="edge2" class="edge" data-name="1-&gt;2">

<path fill="none" stroke="black" d="M386.49,-456.97C355.69,-431.34 316.17,-398.46 283.94,-371.65" style=""/>
<polygon fill="black" stroke="black" points="286.58,-369.29 276.65,-365.58 282.1,-374.67 286.58,-369.29" style=""/>
</g>
<!-- 35 -->
<g id="node10" class="node" pointer-events="visible" data-name="35">

<path fill="#e99558" stroke="black" d="M475.06,-393C475.06,-393 398.94,-393 398.94,-393 392.94,-393 386.94,-387 386.94,-381 386.94,-381 386.94,-262.2 386.94,-262.2 386.94,-256.2 392.94,-250.2 398.94,-250.2 398.94,-250.2 475.06,-250.2 475.06,-250.2 481.06,-250.2 487.06,-256.2 487.06,-262.2 487.06,-262.2 487.06,-381 487.06,-381 487.06,-387 481.06,-393 475.06,-393" style=""/>
<text text-anchor="middle" x="437" y="-376.2" font-family="Helvetica,sans-Serif" font-size="14.00" style="">Rank &lt;= 63.5</text>
<text text-anchor="middle" x="437" y="-359.4" font-family="Helvetica,sans-Serif" font-size="14.00" style="">3.212</text>
<text text-anchor="middle" x="437" y="-342.6" font-family="Helvetica,sans-Serif" font-size="14.00" style="">100</text>
<text text-anchor="middle" x="437" y="-325.8" font-family="Helvetica,sans-Serif" font-size="14.00" style="">[[9.276]</text>
<text text-anchor="middle" x="437" y="-309" font-family="Helvetica,sans-Serif" font-size="14.00" style="">[4.321]</text>
<text text-anchor="middle" x="437" y="-292.2" font-family="Helvetica,sans-Serif" font-size="14.00" style="">[0.889]</text>
<text text-anchor="middle" x="437" y="-275.4" font-family="Helvetica,sans-Serif" font-size="14.00" style="">[2.912]</text>
<text text-anchor="middle" x="437" y="-258.6" font-family="Helvetica,sans-Serif" font-size="14.00" style="">[1.156]]</text>
</g>
<!-- 1&#45;&gt;35 -->
<g id="edge9" class="edge" data-name="1-&gt;35">

<path fill="none" stroke="black" d="M437,-428.27C437,-420.54 437,-412.63 437,-404.77" style=""/>
<polygon fill="black" stroke="black" points="440.5,-404.86 437,-394.86 433.5,-404.86 440.5,-404.86" style=""/>
</g>
<!-- 3 -->
<g id="node4" class="node" pointer-events="visible" data-name="3">

<path fill="#f9e3d3" stroke="black" d="M138.02,-214.6C138.02,-214.6 49.98,-214.6 49.98,-214.6 43.98,-214.6 37.98,-208.6 37.98,-202.6 37.98,-202.6 37.98,-83.8 37.98,-83.8 37.98,-77.8 43.98,-71.8 49.98,-71.8 49.98,-71.8 138.02,-71.8 138.02,-71.8 144.02,-71.8 150.02,-77.8 150.02,-83.8 150.02,-83.8 150.02,-202.6 150.02,-202.6 150.02,-208.6 144.02,-214.6 138.02,-214.6" style=""/>
<text text-anchor="middle" x="94" y="-197.8" font-family="Helvetica,sans-Serif" font-size="14.00" style="">Year &lt;= 1992.5</text>
<text text-anchor="middle" x="94" y="-181" font-family="Helvetica,sans-Serif" font-size="14.00" style="">16.039</text>
<text text-anchor="middle" x="94" y="-164.2" font-family="Helvetica,sans-Serif" font-size="14.00" style="">7</text>
<text text-anchor="middle" x="94" y="-147.4" font-family="Helvetica,sans-Serif" font-size="14.00" style="">[[31.546]</text>
<text text-anchor="middle" x="94" y="-130.6" font-family="Helvetica,sans-Serif" font-size="14.00" style="">[19.264]</text>
<text text-anchor="middle" x="94" y="-113.8" font-family="Helvetica,sans-Serif" font-size="14.00" style="">[1.556]</text>
<text text-anchor="middle" x="94" y="-97" font-family="Helvetica,sans-Serif" font-size="14.00" style="">[6.09]</text>
<text text-anchor="middle" x="94" y="-80.2" font-family="Helvetica,sans-Serif" font-size="14.00" style="">[4.634]]</text>
</g>
<!-- 2&#45;&gt;3 -->
<g id="edge3" class="edge" data-name="2-&gt;3">

<path fill="none" stroke="black" d="M174.54,-252.65C167.6,-243.31 160.43,-233.65 153.35,-224.12" style=""/>
<polygon fill="black" stroke="black" points="156.28,-222.19 147.51,-216.25 150.66,-226.37 156.28,-222.19" style=""/>
</g>
<!-- 16 -->
<g id="node7" class="node" pointer-events="visible" data-name="16">

<path fill="#eda978" stroke="black" d="M269.02,-214.6C269.02,-214.6 180.98,-214.6 180.98,-214.6 174.98,-214.6 168.98,-208.6 168.98,-202.6 168.98,-202.6 168.98,-83.8 168.98,-83.8 168.98,-77.8 174.98,-71.8 180.98,-71.8 180.98,-71.8 269.02,-71.8 269.02,-71.8 275.02,-71.8 281.02,-77.8 281.02,-83.8 281.02,-83.8 281.02,-202.6 281.02,-202.6 281.02,-208.6 275.02,-214.6 269.02,-214.6" style=""/>
<text text-anchor="middle" x="225" y="-197.8" font-family="Helvetica,sans-Serif" font-size="14.00" style="">Year &lt;= 2004.5</text>
<text text-anchor="middle" x="225" y="-181" font-family="Helvetica,sans-Serif" font-size="14.00" style="">6.571</text>
<text text-anchor="middle" x="225" y="-164.2" font-family="Helvetica,sans-Serif" font-size="14.00" style="">10</text>
<text text-anchor="middle" x="225" y="-147.4" font-family="Helvetica,sans-Serif" font-size="14.00" style="">[[20.976]</text>
<text text-anchor="middle" x="225" y="-130.6" font-family="Helvetica,sans-Serif" font-size="14.00" style="">[9.641]</text>
<text text-anchor="middle" x="225" y="-113.8" font-family="Helvetica,sans-Serif" font-size="14.00" style="">[2.655]</text>
<text text-anchor="middle" x="225" y="-97" font-family="Helvetica,sans-Serif" font-size="14.00" style="">[6.139]</text>
<text text-anchor="middle" x="225" y="-80.2" font-family="Helvetica,sans-Serif" font-size="14.00" style="">[2.54]]</text>
</g>
<!-- 2&#45;&gt;16 -->
<g id="edge6" class="edge" data-name="2-&gt;16">

<path fill="none" stroke="black" d="M225,-249.87C225,-242.14 225,-234.23 225,-226.37" style=""/>
<polygon fill="black" stroke="black" points="228.5,-226.46 225,-216.46 221.5,-226.46 228.5,-226.46" style=""/>
</g>
<!-- 4 -->
<g id="node5" class="node" pointer-events="visible" data-name="4">

<path fill="#c0c0c0" stroke="black" d="M42,-36C42,-36 12,-36 12,-36 6,-36 0,-30 0,-24 0,-24 0,-12 0,-12 0,-6 6,0 12,0 12,0 42,0 42,0 48,0 54,-6 54,-12 54,-12 54,-24 54,-24 54,-30 48,-36 42,-36" style=""/>
<text text-anchor="middle" x="27" y="-13.8" font-family="Helvetica,sans-Serif" font-size="14.00" style="">(...)</text>
</g>
<!-- 3&#45;&gt;4 -->
<g id="edge4" class="edge" data-name="3-&gt;4">

<path fill="none" stroke="black" d="M55.61,-71.61C50.76,-62.69 46.05,-54.03 41.9,-46.4" style=""/>
<polygon fill="black" stroke="black" points="45.02,-44.81 37.17,-37.7 38.87,-48.15 45.02,-44.81" style=""/>
</g>
<!-- 9 -->
<g id="node6" class="node" pointer-events="visible" data-name="9">

<path fill="#c0c0c0" stroke="black" d="M114,-36C114,-36 84,-36 84,-36 78,-36 72,-30 72,-24 72,-24 72,-12 72,-12 72,-6 78,0 84,0 84,0 114,0 114,0 120,0 126,-6 126,-12 126,-12 126,-24 126,-24 126,-30 120,-36 114,-36" style=""/>
<text text-anchor="middle" x="99" y="-13.8" font-family="Helvetica,sans-Serif" font-size="14.00" style="">(...)</text>
</g>
<!-- 3&#45;&gt;9 -->
<g id="edge5" class="edge" data-name="3-&gt;9">

<path fill="none" stroke="black" d="M96.87,-71.61C97.21,-63.2 97.54,-55.03 97.83,-47.72" style=""/>
<polygon fill="black" stroke="black" points="101.33,-48.01 98.23,-37.88 94.33,-47.73 101.33,-48.01" style=""/>
</g>
<!-- 17 -->
<g id="node8" class="node" pointer-events="visible" data-name="17">

<path fill="#c0c0c0" stroke="black" d="M205,-36C205,-36 175,-36 175,-36 169,-36 163,-30 163,-24 163,-24 163,-12 163,-12 163,-6 169,0 175,0 175,0 205,0 205,0 211,0 217,-6 217,-12 217,-12 217,-24 217,-24 217,-30 211,-36 205,-36" style=""/>
<text text-anchor="middle" x="190" y="-13.8" font-family="Helvetica,sans-Serif" font-size="14.00" style="">(...)</text>
</g>
<!-- 16&#45;&gt;17 -->
<g id="edge7" class="edge" data-name="16-&gt;17">

<path fill="none" stroke="black" d="M204.94,-71.61C202.5,-63 200.12,-54.63 198.01,-47.19" style=""/>
<polygon fill="black" stroke="black" points="201.45,-46.49 195.35,-37.82 194.71,-48.4 201.45,-46.49" style=""/>
</g>
<!-- 24 -->
<g id="node9" class="node" pointer-events="visible" data-name="24">

<path fill="#c0c0c0" stroke="black" d="M277,-36C277,-36 247,-36 247,-36 241,-36 235,-30 235,-24 235,-24 235,-12 235,-12 235,-6 241,0 247,0 247,0 277,0 277,0 283,0 289,-6 289,-12 289,-12 289,-24 289,-24 289,-30 283,-36 277,-36" style=""/>
<text text-anchor="middle" x="262" y="-13.8" font-family="Helvetica,sans-Serif" font-size="14.00" style="">(...)</text>
</g>
<!-- 16&#45;&gt;24 -->
<g id="edge8" class="edge" data-name="16-&gt;24">

<path fill="none" stroke="black" d="M246.2,-71.61C248.79,-63 251.3,-54.63 253.53,-47.19" style=""/>
<polygon fill="black" stroke="black" points="256.82,-48.4 256.35,-37.82 250.12,-46.39 256.82,-48.4" style=""/>
</g>
<!-- 36 -->
<g id="node11" class="node" pointer-events="visible" data-name="36">

<path fill="#e89051" stroke="black" d="M387.06,-214.6C387.06,-214.6 310.94,-214.6 310.94,-214.6 304.94,-214.6 298.94,-208.6 298.94,-202.6 298.94,-202.6 298.94,-83.8 298.94,-83.8 298.94,-77.8 304.94,-71.8 310.94,-71.8 310.94,-71.8 387.06,-71.8 387.06,-71.8 393.06,-71.8 399.06,-77.8 399.06,-83.8 399.06,-83.8 399.06,-202.6 399.06,-202.6 399.06,-208.6 393.06,-214.6 387.06,-214.6" style=""/>
<text text-anchor="middle" x="349" y="-197.8" font-family="Helvetica,sans-Serif" font-size="14.00" style="">Rank &lt;= 39.5</text>
<text text-anchor="middle" x="349" y="-181" font-family="Helvetica,sans-Serif" font-size="14.00" style="">2.526</text>
<text text-anchor="middle" x="349" y="-164.2" font-family="Helvetica,sans-Serif" font-size="14.00" style="">34</text>
<text text-anchor="middle" x="349" y="-147.4" font-family="Helvetica,sans-Serif" font-size="14.00" style="">[[12.763]</text>
<text text-anchor="middle" x="349" y="-130.6" font-family="Helvetica,sans-Serif" font-size="14.00" style="">[5.891]</text>
<text text-anchor="middle" x="349" y="-113.8" font-family="Helvetica,sans-Serif" font-size="14.00" style="">[1.312]</text>
<text text-anchor="middle" x="349" y="-97" font-family="Helvetica,sans-Serif" font-size="14.00" style="">[3.832]</text>
<text text-anchor="middle" x="349" y="-80.2" font-family="Helvetica,sans-Serif" font-size="14.00" style="">[1.73]]</text>
</g>
<!-- 35&#45;&gt;36 -->
<g id="edge10" class="edge" data-name="35-&gt;36">

<path fill="none" stroke="black" d="M401.71,-249.87C397.63,-241.69 393.45,-233.3 389.31,-225.01" style=""/>
<polygon fill="black" stroke="black" points="392.57,-223.69 384.97,-216.3 386.3,-226.81 392.57,-223.69" style=""/>
</g>
<!-- 103 -->
<g id="node14" class="node" pointer-events="visible" data-name="103">

<path fill="#e68843" stroke="black" d="M620.99,-214.6C620.99,-214.6 429.01,-214.6 429.01,-214.6 423.01,-214.6 417.01,-208.6 417.01,-202.6 417.01,-202.6 417.01,-83.8 417.01,-83.8 417.01,-77.8 423.01,-71.8 429.01,-71.8 429.01,-71.8 620.99,-71.8 620.99,-71.8 626.99,-71.8 632.99,-77.8 632.99,-83.8 632.99,-83.8 632.99,-202.6 632.99,-202.6 632.99,-208.6 626.99,-214.6 620.99,-214.6" style=""/>
<text text-anchor="middle" x="525" y="-197.8" font-family="Helvetica,sans-Serif" font-size="14.00" style="">Publisher_Electronic Arts &lt;= 0.5</text>
<text text-anchor="middle" x="525" y="-181" font-family="Helvetica,sans-Serif" font-size="14.00" style="">1.071</text>
<text text-anchor="middle" x="525" y="-164.2" font-family="Helvetica,sans-Serif" font-size="14.00" style="">66</text>
<text text-anchor="middle" x="525" y="-147.4" font-family="Helvetica,sans-Serif" font-size="14.00" style="">[[7.48]</text>
<text text-anchor="middle" x="525" y="-130.6" font-family="Helvetica,sans-Serif" font-size="14.00" style="">[3.512]</text>
<text text-anchor="middle" x="525" y="-113.8" font-family="Helvetica,sans-Serif" font-size="14.00" style="">[0.67]</text>
<text text-anchor="middle" x="525" y="-97" font-family="Helvetica,sans-Serif" font-size="14.00" style="">[2.438]</text>
<text text-anchor="middle" x="525" y="-80.2" font-family="Helvetica,sans-Serif" font-size="14.00" style="">[0.86]]</text>
</g>
<!-- 35&#45;&gt;103 -->
<g id="edge13" class="edge" data-name="35-&gt;103">

<path fill="none" stroke="black" d="M472.29,-249.87C476.37,-241.69 480.55,-233.3 484.69,-225.01" style=""/>
<polygon fill="black" stroke="black" points="487.7,-226.81 489.03,-216.3 481.43,-223.69 487.7,-226.81" style=""/>
</g>
<!-- 37 -->
<g id="node12" class="node" pointer-events="visible" data-name="37">

<path fill="#c0c0c0" stroke="black" d="M359,-36C359,-36 329,-36 329,-36 323,-36 317,-30 317,-24 317,-24 317,-12 317,-12 317,-6 323,0 329,0 329,0 359,0 359,0 365,0 371,-6 371,-12 371,-12 371,-24 371,-24 371,-30 365,-36 359,-36" style=""/>
<text text-anchor="middle" x="344" y="-13.8" font-family="Helvetica,sans-Serif" font-size="14.00" style="">(...)</text>
</g>
<!-- 36&#45;&gt;37 -->
<g id="edge11" class="edge" data-name="36-&gt;37">

<path fill="none" stroke="black" d="M346.13,-71.61C345.79,-63.2 345.46,-55.03 345.17,-47.72" style=""/>
<polygon fill="black" stroke="black" points="348.67,-47.73 344.77,-37.88 341.67,-48.01 348.67,-47.73" style=""/>
</g>
<!-- 64 -->
<g id="node13" class="node" pointer-events="visible" data-name="64">

<path fill="#c0c0c0" stroke="black" d="M431,-36C431,-36 401,-36 401,-36 395,-36 389,-30 389,-24 389,-24 389,-12 389,-12 389,-6 395,0 401,0 401,0 431,0 431,0 437,0 443,-6 443,-12 443,-12 443,-24 443,-24 443,-30 437,-36 431,-36" style=""/>
<text text-anchor="middle" x="416" y="-13.8" font-family="Helvetica,sans-Serif" font-size="14.00" style="">(...)</text>
</g>
<!-- 36&#45;&gt;64 -->
<g id="edge12" class="edge" data-name="36-&gt;64">

<path fill="none" stroke="black" d="M387.39,-71.61C392.24,-62.69 396.95,-54.03 401.1,-46.4" style=""/>
<polygon fill="black" stroke="black" points="404.13,-48.15 405.83,-37.7 397.98,-44.81 404.13,-48.15" style=""/>
</g>
<!-- 104 -->
<g id="node15" class="node" pointer-events="visible" data-name="104">

<path fill="#c0c0c0" stroke="black" d="M507,-36C507,-36 477,-36 477,-36 471,-36 465,-30 465,-24 465,-24 465,-12 465,-12 465,-6 471,0 477,0 477,0 507,0 507,0 513,0 519,-6 519,-12 519,-12 519,-24 519,-24 519,-30 513,-36 507,-36" style=""/>
<text text-anchor="middle" x="492" y="-13.8" font-family="Helvetica,sans-Serif" font-size="14.00" style="">(...)</text>
</g>
<!-- 103&#45;&gt;104 -->
<g id="edge14" class="edge" data-name="103-&gt;104">

<path fill="none" stroke="black" d="M506.09,-71.61C503.81,-63.1 501.6,-54.83 499.62,-47.46" style=""/>
<polygon fill="black" stroke="black" points="503.01,-46.58 497.04,-37.83 496.25,-48.39 503.01,-46.58" style=""/>
</g>
<!-- 217 -->
<g id="node16" class="node" pointer-events="visible" data-name="217">

<path fill="#c0c0c0" stroke="black" d="M579,-36C579,-36 549,-36 549,-36 543,-36 537,-30 537,-24 537,-24 537,-12 537,-12 537,-6 543,0 549,0 549,0 579,0 579,0 585,0 591,-6 591,-12 591,-12 591,-24 591,-24 591,-30 585,-36 579,-36" style=""/>
<text text-anchor="middle" x="564" y="-13.8" font-family="Helvetica,sans-Serif" font-size="14.00" style="">(...)</text>
</g>
<!-- 103&#45;&gt;217 -->
<g id="edge15" class="edge" data-name="103-&gt;217">

<path fill="none" stroke="black" d="M547.35,-71.61C550.07,-63 552.72,-54.63 555.08,-47.19" style=""/>
<polygon fill="black" stroke="black" points="558.36,-48.4 558.05,-37.81 551.69,-46.29 558.36,-48.4" style=""/>
</g>
<!-- 235 -->
<g id="node18" class="node" pointer-events="visible" data-name="235">

<path fill="#e6843e" stroke="black" d="M809.85,-393C809.85,-393 726.15,-393 726.15,-393 720.15,-393 714.15,-387 714.15,-381 714.15,-381 714.15,-262.2 714.15,-262.2 714.15,-256.2 720.15,-250.2 726.15,-250.2 726.15,-250.2 809.85,-250.2 809.85,-250.2 815.85,-250.2 821.85,-256.2 821.85,-262.2 821.85,-262.2 821.85,-381 821.85,-381 821.85,-387 815.85,-393 809.85,-393" style=""/>
<text text-anchor="middle" x="768" y="-376.2" font-family="Helvetica,sans-Serif" font-size="14.00" style="">Rank &lt;= 490.5</text>
<text text-anchor="middle" x="768" y="-359.4" font-family="Helvetica,sans-Serif" font-size="14.00" style="">0.474</text>
<text text-anchor="middle" x="768" y="-342.6" font-family="Helvetica,sans-Serif" font-size="14.00" style="">1077</text>
<text text-anchor="middle" x="768" y="-325.8" font-family="Helvetica,sans-Serif" font-size="14.00" style="">[[2.416]</text>
<text text-anchor="middle" x="768" y="-309" font-family="Helvetica,sans-Serif" font-size="14.00" style="">[1.18]</text>
<text text-anchor="middle" x="768" y="-292.2" font-family="Helvetica,sans-Serif" font-size="14.00" style="">[0.23]</text>
<text text-anchor="middle" x="768" y="-275.4" font-family="Helvetica,sans-Serif" font-size="14.00" style="">[0.71]</text>
<text text-anchor="middle" x="768" y="-258.6" font-family="Helvetica,sans-Serif" font-size="14.00" style="">[0.297]]</text>
</g>
<!-- 234&#45;&gt;235 -->
<g id="edge17" class="edge" data-name="234-&gt;235">

<path fill="none" stroke="black" d="M768,-428.27C768,-420.54 768,-412.63 768,-404.77" style=""/>
<polygon fill="black" stroke="black" points="771.5,-404.86 768,-394.86 764.5,-404.86 771.5,-404.86" style=""/>
</g>
<!-- 2388 -->
<g id="node25" class="node" pointer-events="visible" data-name="2388">

<path fill="#e58139" stroke="black" d="M1006.63,-393C1006.63,-393 915.37,-393 915.37,-393 909.37,-393 903.37,-387 903.37,-381 903.37,-381 903.37,-262.2 903.37,-262.2 903.37,-256.2 909.37,-250.2 915.37,-250.2 915.37,-250.2 1006.63,-250.2 1006.63,-250.2 1012.63,-250.2 1018.63,-256.2 1018.63,-262.2 1018.63,-262.2 1018.63,-381 1018.63,-381 1018.63,-387 1012.63,-393 1006.63,-393" style=""/>
<text text-anchor="middle" x="961" y="-376.2" font-family="Helvetica,sans-Serif" font-size="14.00" style="">Rank &lt;= 4432.5</text>
<text text-anchor="middle" x="961" y="-359.4" font-family="Helvetica,sans-Serif" font-size="14.00" style="">0.028</text>
<text text-anchor="middle" x="961" y="-342.6" font-family="Helvetica,sans-Serif" font-size="14.00" style="">12084</text>
<text text-anchor="middle" x="961" y="-325.8" font-family="Helvetica,sans-Serif" font-size="14.00" style="">[[0.258]</text>
<text text-anchor="middle" x="961" y="-309" font-family="Helvetica,sans-Serif" font-size="14.00" style="">[0.128]</text>
<text text-anchor="middle" x="961" y="-292.2" font-family="Helvetica,sans-Serif" font-size="14.00" style="">[0.022]</text>
<text text-anchor="middle" x="961" y="-275.4" font-family="Helvetica,sans-Serif" font-size="14.00" style="">[0.064]</text>
<text text-anchor="middle" x="961" y="-258.6" font-family="Helvetica,sans-Serif" font-size="14.00" style="">[0.043]]</text>
</g>
<!-- 234&#45;&gt;2388 -->
<g id="edge24" class="edge" data-name="234-&gt;2388">

<path fill="none" stroke="black" d="M825.91,-446.07C847.57,-426.28 872.33,-403.64 894.69,-383.2" style=""/>
<polygon fill="black" stroke="black" points="897,-385.84 902.02,-376.51 892.27,-380.67 897,-385.84" style=""/>
</g>
<!-- 236 -->
<g id="node19" class="node" pointer-events="visible" data-name="236">

<path fill="#e6843e" stroke="black" d="M746.85,-214.6C746.85,-214.6 663.15,-214.6 663.15,-214.6 657.15,-214.6 651.15,-208.6 651.15,-202.6 651.15,-202.6 651.15,-83.8 651.15,-83.8 651.15,-77.8 657.15,-71.8 663.15,-71.8 663.15,-71.8 746.85,-71.8 746.85,-71.8 752.85,-71.8 758.85,-77.8 758.85,-83.8 758.85,-83.8 758.85,-202.6 758.85,-202.6 758.85,-208.6 752.85,-214.6 746.85,-214.6" style=""/>
<text text-anchor="middle" x="705" y="-197.8" font-family="Helvetica,sans-Serif" font-size="14.00" style="">Rank &lt;= 267.0</text>
<text text-anchor="middle" x="705" y="-181" font-family="Helvetica,sans-Serif" font-size="14.00" style="">0.533</text>
<text text-anchor="middle" x="705" y="-164.2" font-family="Helvetica,sans-Serif" font-size="14.00" style="">263</text>
<text text-anchor="middle" x="705" y="-147.4" font-family="Helvetica,sans-Serif" font-size="14.00" style="">[[4.042]</text>
<text text-anchor="middle" x="705" y="-130.6" font-family="Helvetica,sans-Serif" font-size="14.00" style="">[1.86]</text>
<text text-anchor="middle" x="705" y="-113.8" font-family="Helvetica,sans-Serif" font-size="14.00" style="">[0.394]</text>
<text text-anchor="middle" x="705" y="-97" font-family="Helvetica,sans-Serif" font-size="14.00" style="">[1.261]</text>
<text text-anchor="middle" x="705" y="-80.2" font-family="Helvetica,sans-Serif" font-size="14.00" style="">[0.527]]</text>
</g>
<!-- 235&#45;&gt;236 -->
<g id="edge18" class="edge" data-name="235-&gt;236">

<path fill="none" stroke="black" d="M742.74,-249.87C739.88,-241.87 736.95,-233.67 734.05,-225.55" style=""/>
<polygon fill="black" stroke="black" points="737.44,-224.61 730.78,-216.37 730.84,-226.97 737.44,-224.61" style=""/>
</g>
<!-- 761 -->
<g id="node22" class="node" pointer-events="visible" data-name="761">

<path fill="#e5823a" stroke="black" d="M872.85,-214.6C872.85,-214.6 789.15,-214.6 789.15,-214.6 783.15,-214.6 777.15,-208.6 777.15,-202.6 777.15,-202.6 777.15,-83.8 777.15,-83.8 777.15,-77.8 783.15,-71.8 789.15,-71.8 789.15,-71.8 872.85,-71.8 872.85,-71.8 878.85,-71.8 884.85,-77.8 884.85,-83.8 884.85,-83.8 884.85,-202.6 884.85,-202.6 884.85,-208.6 878.85,-214.6 872.85,-214.6" style=""/>
<text text-anchor="middle" x="831" y="-197.8" font-family="Helvetica,sans-Serif" font-size="14.00" style="">Rank &lt;= 844.5</text>
<text text-anchor="middle" x="831" y="-181" font-family="Helvetica,sans-Serif" font-size="14.00" style="">0.156</text>
<text text-anchor="middle" x="831" y="-164.2" font-family="Helvetica,sans-Serif" font-size="14.00" style="">814</text>
<text text-anchor="middle" x="831" y="-147.4" font-family="Helvetica,sans-Serif" font-size="14.00" style="">[[1.891]</text>
<text text-anchor="middle" x="831" y="-130.6" font-family="Helvetica,sans-Serif" font-size="14.00" style="">[0.96]</text>
<text text-anchor="middle" x="831" y="-113.8" font-family="Helvetica,sans-Serif" font-size="14.00" style="">[0.177]</text>
<text text-anchor="middle" x="831" y="-97" font-family="Helvetica,sans-Serif" font-size="14.00" style="">[0.532]</text>
<text text-anchor="middle" x="831" y="-80.2" font-family="Helvetica,sans-Serif" font-size="14.00" style="">[0.222]]</text>
</g>
<!-- 235&#45;&gt;761 -->
<g id="edge21" class="edge" data-name="235-&gt;761">

<path fill="none" stroke="black" d="M793.26,-249.87C796.12,-241.87 799.05,-233.67 801.95,-225.55" style=""/>
<polygon fill="black" stroke="black" points="805.16,-226.97 805.22,-216.37 798.56,-224.61 805.16,-226.97" style=""/>
</g>
<!-- 237 -->
<g id="node20" class="node" pointer-events="visible" data-name="237">

<path fill="#c0c0c0" stroke="black" d="M664,-36C664,-36 634,-36 634,-36 628,-36 622,-30 622,-24 622,-24 622,-12 622,-12 622,-6 628,0 634,0 634,0 664,0 664,0 670,0 676,-6 676,-12 676,-12 676,-24 676,-24 676,-30 670,-36 664,-36" style=""/>
<text text-anchor="middle" x="649" y="-13.8" font-family="Helvetica,sans-Serif" font-size="14.00" style="">(...)</text>
</g>
<!-- 236&#45;&gt;237 -->
<g id="edge19" class="edge" data-name="236-&gt;237">

<path fill="none" stroke="black" d="M672.91,-71.61C668.91,-62.79 665.01,-54.23 661.57,-46.66" style=""/>
<polygon fill="black" stroke="black" points="664.85,-45.4 657.52,-37.75 658.47,-48.3 664.85,-45.4" style=""/>
</g>
<!-- 420 -->
<g id="node21" class="node" pointer-events="visible" data-name="420">

<path fill="#c0c0c0" stroke="black" d="M736,-36C736,-36 706,-36 706,-36 700,-36 694,-30 694,-24 694,-24 694,-12 694,-12 694,-6 700,0 706,0 706,0 736,0 736,0 742,0 748,-6 748,-12 748,-12 748,-24 748,-24 748,-30 742,-36 736,-36" style=""/>
<text text-anchor="middle" x="721" y="-13.8" font-family="Helvetica,sans-Serif" font-size="14.00" style="">(...)</text>
</g>
<!-- 236&#45;&gt;420 -->
<g id="edge20" class="edge" data-name="236-&gt;420">

<path fill="none" stroke="black" d="M714.17,-71.61C715.26,-63.2 716.32,-55.03 717.27,-47.72" style=""/>
<polygon fill="black" stroke="black" points="720.73,-48.24 718.55,-37.87 713.79,-47.33 720.73,-48.24" style=""/>
</g>
<!-- 762 -->
<g id="node23" class="node" pointer-events="visible" data-name="762">

<path fill="#c0c0c0" stroke="black" d="M814,-36C814,-36 784,-36 784,-36 778,-36 772,-30 772,-24 772,-24 772,-12 772,-12 772,-6 778,0 784,0 784,0 814,0 814,0 820,0 826,-6 826,-12 826,-12 826,-24 826,-24 826,-30 820,-36 814,-36" style=""/>
<text text-anchor="middle" x="799" y="-13.8" font-family="Helvetica,sans-Serif" font-size="14.00" style="">(...)</text>
</g>
<!-- 761&#45;&gt;762 -->
<g id="edge22" class="edge" data-name="761-&gt;762">

<path fill="none" stroke="black" d="M812.66,-71.61C810.45,-63.1 808.31,-54.83 806.39,-47.46" style=""/>
<polygon fill="black" stroke="black" points="809.79,-46.63 803.89,-37.83 803.02,-48.39 809.79,-46.63" style=""/>
</g>
<!-- 1329 -->
<g id="node24" class="node" pointer-events="visible" data-name="1329">

<path fill="#c0c0c0" stroke="black" d="M886,-36C886,-36 856,-36 856,-36 850,-36 844,-30 844,-24 844,-24 844,-12 844,-12 844,-6 850,0 856,0 856,0 886,0 886,0 892,0 898,-6 898,-12 898,-12 898,-24 898,-24 898,-30 892,-36 886,-36" style=""/>
<text text-anchor="middle" x="871" y="-13.8" font-family="Helvetica,sans-Serif" font-size="14.00" style="">(...)</text>
</g>
<!-- 761&#45;&gt;1329 -->
<g id="edge23" class="edge" data-name="761-&gt;1329">

<path fill="none" stroke="black" d="M853.92,-71.61C856.72,-63 859.43,-54.63 861.85,-47.19" style=""/>
<polygon fill="black" stroke="black" points="865.13,-48.4 864.89,-37.81 858.48,-46.24 865.13,-48.4" style=""/>
</g>
<!-- 2389 -->
<g id="node26" class="node" pointer-events="visible" data-name="2389">

<path fill="#e58139" stroke="black" d="M1006.63,-214.6C1006.63,-214.6 915.37,-214.6 915.37,-214.6 909.37,-214.6 903.37,-208.6 903.37,-202.6 903.37,-202.6 903.37,-83.8 903.37,-83.8 903.37,-77.8 909.37,-71.8 915.37,-71.8 915.37,-71.8 1006.63,-71.8 1006.63,-71.8 1012.63,-71.8 1018.63,-77.8 1018.63,-83.8 1018.63,-83.8 1018.63,-202.6 1018.63,-202.6 1018.63,-208.6 1012.63,-214.6 1006.63,-214.6" style=""/>
<text text-anchor="middle" x="961" y="-197.8" font-family="Helvetica,sans-Serif" font-size="14.00" style="">Rank &lt;= 2532.5</text>
<text text-anchor="middle" x="961" y="-181" font-family="Helvetica,sans-Serif" font-size="14.00" style="">0.039</text>
<text text-anchor="middle" x="961" y="-164.2" font-family="Helvetica,sans-Serif" font-size="14.00" style="">2349</text>
<text text-anchor="middle" x="961" y="-147.4" font-family="Helvetica,sans-Serif" font-size="14.00" style="">[[0.757]</text>
<text text-anchor="middle" x="961" y="-130.6" font-family="Helvetica,sans-Serif" font-size="14.00" style="">[0.378]</text>
<text text-anchor="middle" x="961" y="-113.8" font-family="Helvetica,sans-Serif" font-size="14.00" style="">[0.071]</text>
<text text-anchor="middle" x="961" y="-97" font-family="Helvetica,sans-Serif" font-size="14.00" style="">[0.21]</text>
<text text-anchor="middle" x="961" y="-80.2" font-family="Helvetica,sans-Serif" font-size="14.00" style="">[0.098]]</text>
</g>
<!-- 2388&#45;&gt;2389 -->
<g id="edge25" class="edge" data-name="2388-&gt;2389">

<path fill="none" stroke="black" d="M961,-249.87C961,-242.14 961,-234.23 961,-226.37" style=""/>
<polygon fill="black" stroke="black" points="964.5,-226.46 961,-216.46 957.5,-226.46 964.5,-226.46" style=""/>
</g>
<!-- 6810 -->
<g id="node29" class="node" pointer-events="visible" data-name="6810">

<path fill="#e58139" stroke="black" d="M1140.63,-214.6C1140.63,-214.6 1049.37,-214.6 1049.37,-214.6 1043.37,-214.6 1037.37,-208.6 1037.37,-202.6 1037.37,-202.6 1037.37,-83.8 1037.37,-83.8 1037.37,-77.8 1043.37,-71.8 1049.37,-71.8 1049.37,-71.8 1140.63,-71.8 1140.63,-71.8 1146.63,-71.8 1152.63,-77.8 1152.63,-83.8 1152.63,-83.8 1152.63,-202.6 1152.63,-202.6 1152.63,-208.6 1146.63,-214.6 1140.63,-214.6" style=""/>
<text text-anchor="middle" x="1095" y="-197.8" font-family="Helvetica,sans-Serif" font-size="14.00" style="">Rank &lt;= 8020.5</text>
<text text-anchor="middle" x="1095" y="-181" font-family="Helvetica,sans-Serif" font-size="14.00" style="">0.005</text>
<text text-anchor="middle" x="1095" y="-164.2" font-family="Helvetica,sans-Serif" font-size="14.00" style="">9735</text>
<text text-anchor="middle" x="1095" y="-147.4" font-family="Helvetica,sans-Serif" font-size="14.00" style="">[[0.137]</text>
<text text-anchor="middle" x="1095" y="-130.6" font-family="Helvetica,sans-Serif" font-size="14.00" style="">[0.068]</text>
<text text-anchor="middle" x="1095" y="-113.8" font-family="Helvetica,sans-Serif" font-size="14.00" style="">[0.01]</text>
<text text-anchor="middle" x="1095" y="-97" font-family="Helvetica,sans-Serif" font-size="14.00" style="">[0.029]</text>
<text text-anchor="middle" x="1095" y="-80.2" font-family="Helvetica,sans-Serif" font-size="14.00" style="">[0.03]]</text>
</g>
<!-- 2388&#45;&gt;6810 -->
<g id="edge28" class="edge" data-name="2388-&gt;6810">

<path fill="none" stroke="black" d="M1014.73,-249.87C1021.22,-241.33 1027.87,-232.57 1034.45,-223.91" style=""/>
<polygon fill="black" stroke="black" points="1037.08,-226.23 1040.34,-216.15 1031.51,-222 1037.08,-226.23" style=""/>
</g>
<!-- 2390 -->
<g id="node27" class="node" pointer-events="visible" data-name="2390">

<path fill="#c0c0c0" stroke="black" d="M961,-36C961,-36 931,-36 931,-36 925,-36 919,-30 919,-24 919,-24 919,-12 919,-12 919,-6 925,0 931,0 931,0 961,0 961,0 967,0 973,-6 973,-12 973,-12 973,-24 973,-24 973,-30 967,-36 961,-36" style=""/>
<text text-anchor="middle" x="946" y="-13.8" font-family="Helvetica,sans-Serif" font-size="14.00" style="">(...)</text>
</g>
<!-- 2389&#45;&gt;2390 -->
<g id="edge26" class="edge" data-name="2389-&gt;2390">

<path fill="none" stroke="black" d="M952.4,-71.61C951.38,-63.2 950.39,-55.03 949.5,-47.72" style=""/>
<polygon fill="black" stroke="black" points="952.98,-47.37 948.3,-37.87 946.03,-48.22 952.98,-47.37" style=""/>
</g>
<!-- 4037 -->
<g id="node28" class="node" pointer-events="visible" data-name="4037">

<path fill="#c0c0c0" stroke="black" d="M1033,-36C1033,-36 1003,-36 1003,-36 997,-36 991,-30 991,-24 991,-24 991,-12 991,-12 991,-6 997,0 1003,0 1003,0 1033,0 1033,0 1039,0 1045,-6 1045,-12 1045,-12 1045,-24 1045,-24 1045,-30 1039,-36 1033,-36" style=""/>
<text text-anchor="middle" x="1018" y="-13.8" font-family="Helvetica,sans-Serif" font-size="14.00" style="">(...)</text>
</g>
<!-- 2389&#45;&gt;4037 -->
<g id="edge27" class="edge" data-name="2389-&gt;4037">

<path fill="none" stroke="black" d="M993.66,-71.61C997.74,-62.79 1001.7,-54.23 1005.2,-46.66" style=""/>
<polygon fill="black" stroke="black" points="1008.31,-48.29 1009.33,-37.74 1001.95,-45.35 1008.31,-48.29" style=""/>
</g>
<!-- 6811 -->
<g id="node30" class="node" pointer-events="visible" data-name="6811">

<path fill="#c0c0c0" stroke="black" d="M1107,-36C1107,-36 1077,-36 1077,-36 1071,-36 1065,-30 1065,-24 1065,-24 1065,-12 1065,-12 1065,-6 1071,0 1077,0 1077,0 1107,0 1107,0 1113,0 1119,-6 1119,-12 1119,-12 1119,-24 1119,-24 1119,-30 1113,-36 1107,-36" style=""/>
<text text-anchor="middle" x="1092" y="-13.8" font-family="Helvetica,sans-Serif" font-size="14.00" style="">(...)</text>
</g>
<!-- 6810&#45;&gt;6811 -->
<g id="edge29" class="edge" data-name="6810-&gt;6811">

<path fill="none" stroke="black" d="M1093.28,-71.61C1093.08,-63.2 1092.88,-55.03 1092.7,-47.72" style=""/>
<polygon fill="black" stroke="black" points="1096.2,-47.79 1092.46,-37.88 1089.2,-47.96 1096.2,-47.79" style=""/>
</g>
<!-- 11184 -->
<g id="node31" class="node" pointer-events="visible" data-name="11184">

<path fill="#c0c0c0" stroke="black" d="M1179,-36C1179,-36 1149,-36 1149,-36 1143,-36 1137,-30 1137,-24 1137,-24 1137,-12 1137,-12 1137,-6 1143,0 1149,0 1149,0 1179,0 1179,0 1185,0 1191,-6 1191,-12 1191,-12 1191,-24 1191,-24 1191,-30 1185,-36 1179,-36" style=""/>
<text text-anchor="middle" x="1164" y="-13.8" font-family="Helvetica,sans-Serif" font-size="14.00" style="">(...)</text>
</g>
<!-- 6810&#45;&gt;11184 -->
<g id="edge30" class="edge" data-name="6810-&gt;11184">

<path fill="none" stroke="black" d="M1134.54,-71.61C1139.53,-62.69 1144.38,-54.03 1148.66,-46.4" style=""/>
<polygon fill="black" stroke="black" points="1151.7,-48.12 1153.53,-37.69 1145.59,-44.7 1151.7,-48.12" style=""/>
</g>
</g>
</svg>